<mxfile host="app.diagrams.net" modified="2021-01-18T02:03:03.036Z" agent="5.0 (Windows NT 10.0; Win64; x64) AppleWebKit/537.36 (KHTML, like Gecko) Chrome/87.0.4280.141 Safari/537.36" etag="D-3s3URpcdGR4CiJfOGP" version="14.2.3" type="github">
  <diagram name="Page-1" id="74e2e168-ea6b-b213-b513-2b3c1d86103e">
    <mxGraphModel dx="1662" dy="762" grid="1" gridSize="10" guides="1" tooltips="1" connect="1" arrows="1" fold="1" page="1" pageScale="1" pageWidth="2336" pageHeight="1654" background="#ffffff" math="0" shadow="0">
      <root>
        <mxCell id="0" />
        <mxCell id="1" parent="0" />
        <mxCell id="77e6c97f196da883-1" value="Pool" style="swimlane;html=1;childLayout=stackLayout;startSize=20;rounded=0;shadow=0;labelBackgroundColor=none;strokeWidth=1;fontFamily=Verdana;fontSize=8;align=center;" parent="1" vertex="1">
          <mxGeometry x="320" y="40" width="950" height="750" as="geometry" />
        </mxCell>
        <mxCell id="77e6c97f196da883-2" value="支出预算" style="swimlane;html=1;startSize=20;" parent="77e6c97f196da883-1" vertex="1">
          <mxGeometry y="20" width="490" height="730" as="geometry" />
        </mxCell>
        <mxCell id="R8TNXXJrXzedUtsp0zUt-1" value="开始" style="ellipse;whiteSpace=wrap;html=1;" parent="77e6c97f196da883-2" vertex="1">
          <mxGeometry x="200" y="40" width="80" height="80" as="geometry" />
        </mxCell>
        <mxCell id="R8TNXXJrXzedUtsp0zUt-12" value="支出预算" style="whiteSpace=wrap;html=1;" parent="77e6c97f196da883-2" vertex="1">
          <mxGeometry x="180" y="140" width="120" height="60" as="geometry" />
        </mxCell>
        <mxCell id="R8TNXXJrXzedUtsp0zUt-13" value="" style="edgeStyle=orthogonalEdgeStyle;rounded=0;orthogonalLoop=1;jettySize=auto;html=1;" parent="77e6c97f196da883-2" source="R8TNXXJrXzedUtsp0zUt-1" target="R8TNXXJrXzedUtsp0zUt-12" edge="1">
          <mxGeometry relative="1" as="geometry" />
        </mxCell>
        <mxCell id="R8TNXXJrXzedUtsp0zUt-17" value="支出预算管理" style="whiteSpace=wrap;html=1;rounded=1;" parent="77e6c97f196da883-2" vertex="1">
          <mxGeometry x="180" y="410" width="120" height="60" as="geometry" />
        </mxCell>
        <mxCell id="R8TNXXJrXzedUtsp0zUt-27" style="edgeStyle=orthogonalEdgeStyle;rounded=0;orthogonalLoop=1;jettySize=auto;html=1;entryX=0.5;entryY=0;entryDx=0;entryDy=0;" parent="77e6c97f196da883-2" source="R8TNXXJrXzedUtsp0zUt-18" target="R8TNXXJrXzedUtsp0zUt-17" edge="1">
          <mxGeometry relative="1" as="geometry" />
        </mxCell>
        <mxCell id="R8TNXXJrXzedUtsp0zUt-18" value="&lt;span style=&quot;font-size: 11px ; background-color: rgb(255 , 255 , 255)&quot;&gt;修改按钮权限&lt;/span&gt;" style="rounded=0;whiteSpace=wrap;html=1;" parent="77e6c97f196da883-2" vertex="1">
          <mxGeometry x="180" y="260" width="120" height="60" as="geometry" />
        </mxCell>
        <mxCell id="R8TNXXJrXzedUtsp0zUt-15" value="" style="edgeStyle=orthogonalEdgeStyle;rounded=0;orthogonalLoop=1;jettySize=auto;html=1;entryX=0.5;entryY=0;entryDx=0;entryDy=0;" parent="77e6c97f196da883-2" source="R8TNXXJrXzedUtsp0zUt-12" target="R8TNXXJrXzedUtsp0zUt-18" edge="1">
          <mxGeometry relative="1" as="geometry">
            <mxPoint x="240" y="240" as="targetPoint" />
          </mxGeometry>
        </mxCell>
        <mxCell id="R8TNXXJrXzedUtsp0zUt-28" value="有效预算数据" style="shape=document;whiteSpace=wrap;html=1;boundedLbl=1;rounded=1;" parent="77e6c97f196da883-2" vertex="1">
          <mxGeometry x="180" y="550" width="120" height="80" as="geometry" />
        </mxCell>
        <mxCell id="R8TNXXJrXzedUtsp0zUt-29" value="" style="edgeStyle=orthogonalEdgeStyle;rounded=0;orthogonalLoop=1;jettySize=auto;html=1;" parent="77e6c97f196da883-2" source="R8TNXXJrXzedUtsp0zUt-17" target="R8TNXXJrXzedUtsp0zUt-28" edge="1">
          <mxGeometry relative="1" as="geometry" />
        </mxCell>
        <mxCell id="R8TNXXJrXzedUtsp0zUt-54" style="edgeStyle=orthogonalEdgeStyle;rounded=0;orthogonalLoop=1;jettySize=auto;html=1;entryX=0;entryY=0.5;entryDx=0;entryDy=0;" parent="77e6c97f196da883-1" source="R8TNXXJrXzedUtsp0zUt-28" target="R8TNXXJrXzedUtsp0zUt-37" edge="1">
          <mxGeometry relative="1" as="geometry">
            <Array as="points">
              <mxPoint x="460" y="610" />
              <mxPoint x="460" y="115" />
            </Array>
          </mxGeometry>
        </mxCell>
        <mxCell id="mm2p7B827txTK2i35yck-2" value="2小时同步一次" style="edgeLabel;html=1;align=center;verticalAlign=middle;resizable=0;points=[];" vertex="1" connectable="0" parent="R8TNXXJrXzedUtsp0zUt-54">
          <mxGeometry x="0.6767" y="-4" relative="1" as="geometry">
            <mxPoint x="5" y="-5" as="offset" />
          </mxGeometry>
        </mxCell>
        <mxCell id="77e6c97f196da883-3" value="经营预算" style="swimlane;html=1;startSize=20;" parent="77e6c97f196da883-1" vertex="1">
          <mxGeometry x="490" y="20" width="460" height="730" as="geometry" />
        </mxCell>
        <mxCell id="mm2p7B827txTK2i35yck-1" style="edgeStyle=orthogonalEdgeStyle;rounded=0;orthogonalLoop=1;jettySize=auto;html=1;" edge="1" parent="77e6c97f196da883-3" source="R8TNXXJrXzedUtsp0zUt-37" target="R8TNXXJrXzedUtsp0zUt-58">
          <mxGeometry relative="1" as="geometry" />
        </mxCell>
        <mxCell id="R8TNXXJrXzedUtsp0zUt-37" value="&lt;span&gt;快照数据&lt;/span&gt;" style="shape=document;whiteSpace=wrap;html=1;boundedLbl=1;" parent="77e6c97f196da883-3" vertex="1">
          <mxGeometry x="175" y="60" width="110" height="70" as="geometry" />
        </mxCell>
        <mxCell id="R8TNXXJrXzedUtsp0zUt-58" value="项目经营预算" style="shape=document;whiteSpace=wrap;html=1;boundedLbl=1;" parent="77e6c97f196da883-3" vertex="1">
          <mxGeometry x="175" y="350" width="110" height="70" as="geometry" />
        </mxCell>
        <mxCell id="R8TNXXJrXzedUtsp0zUt-59" value="计算城市／战区经营预算汇总" style="whiteSpace=wrap;html=1;" parent="77e6c97f196da883-3" vertex="1">
          <mxGeometry x="170" y="480" width="120" height="60" as="geometry" />
        </mxCell>
        <mxCell id="R8TNXXJrXzedUtsp0zUt-60" value="" style="edgeStyle=orthogonalEdgeStyle;rounded=0;orthogonalLoop=1;jettySize=auto;html=1;" parent="77e6c97f196da883-3" source="R8TNXXJrXzedUtsp0zUt-58" target="R8TNXXJrXzedUtsp0zUt-59" edge="1">
          <mxGeometry relative="1" as="geometry" />
        </mxCell>
        <mxCell id="R8TNXXJrXzedUtsp0zUt-62" value="" style="edgeStyle=orthogonalEdgeStyle;rounded=0;orthogonalLoop=1;jettySize=auto;html=1;entryX=0.5;entryY=0;entryDx=0;entryDy=0;" parent="77e6c97f196da883-3" source="R8TNXXJrXzedUtsp0zUt-59" target="R8TNXXJrXzedUtsp0zUt-63" edge="1">
          <mxGeometry relative="1" as="geometry">
            <mxPoint x="230" y="520" as="targetPoint" />
          </mxGeometry>
        </mxCell>
        <mxCell id="R8TNXXJrXzedUtsp0zUt-63" value="结束" style="ellipse;whiteSpace=wrap;html=1;" parent="77e6c97f196da883-3" vertex="1">
          <mxGeometry x="180" y="600" width="100" height="100" as="geometry" />
        </mxCell>
        <mxCell id="R8TNXXJrXzedUtsp0zUt-25" value="&lt;h1&gt;权限&lt;/h1&gt;&lt;p&gt;保留原逻辑的新增权限，开放调增、调减、净调整&lt;/p&gt;" style="text;html=1;strokeColor=none;fillColor=none;spacing=5;spacingTop=-20;whiteSpace=wrap;overflow=hidden;rounded=0;" parent="1" vertex="1">
          <mxGeometry x="130" y="300" width="190" height="120" as="geometry" />
        </mxCell>
        <mxCell id="R8TNXXJrXzedUtsp0zUt-26" value="" style="endArrow=none;dashed=1;html=1;dashPattern=1 3;strokeWidth=2;entryX=0;entryY=0.5;entryDx=0;entryDy=0;" parent="1" source="R8TNXXJrXzedUtsp0zUt-25" target="R8TNXXJrXzedUtsp0zUt-18" edge="1">
          <mxGeometry width="50" height="50" relative="1" as="geometry">
            <mxPoint x="190" y="540" as="sourcePoint" />
            <mxPoint x="240" y="490" as="targetPoint" />
          </mxGeometry>
        </mxCell>
        <mxCell id="R8TNXXJrXzedUtsp0zUt-42" value="&lt;h1&gt;快照预算数据&lt;/h1&gt;&lt;h1&gt;&lt;p style=&quot;font-size: 12px ; font-weight: 400&quot;&gt;2小时拉取一次所有项目及年份的预算数据&lt;/p&gt;&lt;p style=&quot;font-size: 12px ; font-weight: 400&quot;&gt;包含项目ID、年份、月份、各支出预算科目1-12月预算数据&lt;/p&gt;&lt;p style=&quot;font-size: 12px ; font-weight: 400&quot;&gt;根据项目ID、年月、科目&lt;span&gt;保留一份有效快照数据，每个月份都要保留一份用于&lt;/span&gt;&lt;span&gt;数据回溯&lt;/span&gt;&lt;/p&gt;&lt;/h1&gt;" style="text;html=1;strokeColor=none;fillColor=none;spacing=5;spacingTop=-20;whiteSpace=wrap;overflow=hidden;rounded=0;" parent="1" vertex="1">
          <mxGeometry x="1270" y="120" width="190" height="210" as="geometry" />
        </mxCell>
        <mxCell id="R8TNXXJrXzedUtsp0zUt-55" value="" style="endArrow=none;dashed=1;html=1;dashPattern=1 3;strokeWidth=2;" parent="1" source="R8TNXXJrXzedUtsp0zUt-37" target="R8TNXXJrXzedUtsp0zUt-42" edge="1">
          <mxGeometry width="50" height="50" relative="1" as="geometry">
            <mxPoint x="1160" y="410" as="sourcePoint" />
            <mxPoint x="1210" y="360" as="targetPoint" />
          </mxGeometry>
        </mxCell>
      </root>
    </mxGraphModel>
  </diagram>
</mxfile>
